<svg id="svg" version="1.1" width="1000" height="302" xmlns="http://www.w3.org/2000/svg"
     xmlns:xlink="http://www.w3.org/1999/xlink" style="display: block;">
    <g id="svgg">
        <path id="path0"
              d="M202.995 1.120 C 198.217 2.772,195.177 5.473,193.055 9.951 L 191.800 12.600 191.800 60.600 L 191.800 108.600 192.852 110.804 C 195.092 115.493,199.423 119.002,204.427 120.182 C 208.275 121.089,382.868 121.102,386.713 120.196 C 392.820 118.756,397.227 114.664,398.956 108.827 C 399.928 105.548,399.937 15.280,398.966 12.011 C 397.406 6.758,393.250 2.596,388.008 1.040 C 384.558 0.015,205.966 0.092,202.995 1.120 M216.771 30.025 C 219.665 32.121,219.981 33.345,219.991 42.500 L 220.000 50.400 226.400 50.400 L 232.800 50.400 232.800 42.380 C 232.800 33.851,232.947 33.060,234.947 30.862 C 238.298 27.178,244.977 28.569,246.775 33.326 C 247.057 34.073,247.200 42.041,247.200 57.000 C 247.200 71.959,247.057 79.927,246.775 80.674 C 244.977 85.431,238.298 86.822,234.947 83.138 C 232.947 80.940,232.800 80.149,232.800 71.620 L 232.800 63.600 226.400 63.600 L 220.000 63.600 219.991 71.500 C 219.982 80.064,219.685 81.518,217.553 83.473 C 214.353 86.406,208.771 85.541,206.561 81.769 L 205.600 80.130 205.600 57.191 C 205.600 35.177,205.632 34.187,206.389 32.623 C 208.225 28.831,213.351 27.548,216.771 30.025 M60.119 36.760 C 57.550 38.374,57.600 37.920,57.601 59.680 C 57.603 82.913,57.669 83.200,63.000 83.200 C 67.485 83.200,68.150 81.623,68.400 70.400 C 68.646 59.341,69.033 58.400,73.342 58.400 C 75.075 58.400,75.463 58.567,76.653 59.828 L 78.000 61.257 78.000 69.841 C 78.000 80.825,78.949 83.202,83.331 83.199 C 88.201 83.194,88.898 81.367,88.731 69.040 L 88.600 59.400 87.358 56.779 C 84.315 50.358,77.586 46.722,70.815 47.842 L 68.400 48.242 68.398 44.821 C 68.393 37.549,64.656 33.910,60.119 36.760 M139.249 37.084 C 136.335 38.519,136.371 38.265,136.492 56.400 L 136.600 72.600 137.752 75.094 C 140.175 80.341,144.385 82.985,150.330 82.994 L 154.060 83.000 155.430 81.506 C 158.563 78.089,156.269 72.800,151.653 72.800 C 149.964 72.800,149.388 72.599,148.306 71.633 L 147.000 70.467 146.866 63.833 L 146.731 57.200 149.978 57.200 C 155.162 57.200,157.200 55.879,157.200 52.517 C 157.200 49.278,155.700 48.228,150.833 48.063 L 146.800 47.925 146.794 44.063 C 146.784 37.636,143.776 34.854,139.249 37.084 M316.363 47.416 C 327.192 49.968,333.481 61.170,329.888 71.502 C 326.769 80.471,317.099 85.766,308.068 83.450 C 306.675 83.092,305.460 82.800,305.368 82.800 C 305.275 82.800,305.200 84.766,305.200 87.169 C 305.200 95.005,298.231 98.528,294.700 92.476 C 293.514 90.444,293.638 51.368,294.835 49.846 C 296.639 47.552,299.900 46.932,302.338 48.419 C 303.306 49.009,303.817 49.118,304.184 48.813 C 306.074 47.245,312.506 46.507,316.363 47.416 M357.632 47.407 C 367.221 49.424,373.529 58.469,372.128 68.193 C 370.505 79.462,357.941 86.990,347.465 82.970 C 346.873 82.743,346.800 83.139,346.800 86.570 C 346.800 88.953,346.588 90.933,346.245 91.753 C 344.449 96.053,338.063 96.187,335.895 91.972 C 334.745 89.735,335.022 51.509,336.200 49.921 C 337.970 47.535,342.049 46.834,343.983 48.585 C 344.617 49.159,344.878 49.185,345.667 48.757 C 348.727 47.094,353.555 46.549,357.632 47.407 M273.600 47.765 C 274.810 48.070,276.362 48.548,277.050 48.828 C 278.167 49.284,278.416 49.246,279.404 48.469 C 281.786 46.594,286.246 47.777,287.424 50.596 C 288.432 53.009,288.254 79.379,287.218 81.078 C 285.632 83.679,283.012 84.485,280.194 83.239 L 278.349 82.423 275.404 83.411 C 263.929 87.264,251.955 79.472,250.945 67.494 C 249.879 54.853,261.507 44.726,273.600 47.765 M108.073 48.030 C 100.934 49.277,94.770 55.676,93.590 63.065 C 91.367 76.979,105.800 88.103,118.680 82.406 C 120.415 81.639,120.444 81.639,121.716 82.414 C 124.626 84.188,128.281 82.852,129.219 79.671 C 130.143 76.540,129.544 51.602,128.510 50.153 C 126.839 47.809,123.362 47.357,121.374 49.224 L 120.463 50.080 117.932 49.076 C 114.998 47.912,111.110 47.499,108.073 48.030 M169.706 48.217 C 158.051 51.355,158.631 64.836,170.595 68.862 C 173.312 69.776,174.380 71.160,173.456 72.571 C 172.519 74.000,171.360 74.155,168.637 73.216 C 164.671 71.846,162.153 72.579,160.953 75.450 C 158.328 81.734,168.821 86.189,177.104 82.307 C 186.649 77.833,184.937 62.513,174.678 60.588 C 169.828 59.678,170.041 55.993,174.909 56.597 C 178.756 57.075,179.697 56.945,180.697 55.794 C 184.786 51.091,177.551 46.104,169.706 48.217 M3.400 48.382 C -0.429 49.965,-0.524 52.414,2.919 60.800 C 3.687 62.670,5.310 66.630,6.526 69.600 C 11.224 81.078,11.351 81.335,12.770 82.291 C 15.026 83.812,18.531 83.392,19.804 81.450 C 20.318 80.665,23.804 72.511,26.066 66.800 L 26.462 65.800 27.066 67.200 C 27.398 67.970,28.752 71.300,30.075 74.600 C 32.912 81.673,33.807 82.822,36.697 83.100 C 40.680 83.482,40.807 83.313,45.823 70.940 C 47.505 66.793,49.564 61.780,50.400 59.800 C 53.769 51.818,52.850 48.000,47.560 48.000 C 43.871 48.000,43.176 49.098,37.174 64.400 L 36.468 66.200 36.008 65.000 C 30.506 50.660,28.943 48.431,25.181 49.558 C 23.142 50.169,22.618 51.013,19.469 58.766 C 18.002 62.377,16.711 65.422,16.601 65.533 C 16.269 65.864,16.675 66.788,10.847 52.415 C 9.316 48.641,6.483 47.106,3.400 48.382 M114.274 58.827 C 119.009 60.621,120.273 67.159,116.653 71.138 C 112.993 75.162,105.160 73.057,104.171 67.784 C 102.984 61.457,108.443 56.617,114.274 58.827 M310.400 58.868 C 302.804 61.013,304.482 72.200,312.400 72.200 C 320.463 72.200,321.978 60.954,314.200 58.839 C 312.357 58.338,312.271 58.339,310.400 58.868 M351.723 58.842 C 349.794 59.400,347.754 61.545,347.190 63.610 C 345.343 70.372,353.431 75.260,358.549 70.475 C 363.907 65.465,358.816 56.790,351.723 58.842 M266.800 59.248 C 264.359 60.219,262.400 63.191,262.400 65.923 C 262.400 73.022,272.568 75.319,275.599 68.904 C 278.320 63.144,272.651 56.922,266.800 59.248 M384.504 75.185 C 386.098 76.970,385.990 80.592,384.291 82.291 C 381.490 85.092,376.122 83.388,375.386 79.465 C 374.457 74.516,381.114 71.392,384.504 75.185 "
              stroke="none" fill="#fd673d" fill-rule="evenodd"></path>
        <path id="path1"
              d="M204.000 0.286 C 203.450 0.386,202.820 0.659,202.600 0.893 C 202.320 1.190,202.440 1.210,203.000 0.959 C 204.161 0.438,384.943 0.262,387.048 0.780 C 387.955 1.003,389.035 1.290,389.448 1.418 C 389.862 1.546,389.660 1.324,389.000 0.925 C 387.859 0.236,207.706 -0.387,204.000 0.286 M200.094 1.799 C 197.197 3.058,192.857 8.118,192.178 11.027 C 192.028 11.672,192.547 10.940,193.331 9.400 C 194.992 6.141,196.925 4.118,200.000 2.426 C 202.294 1.163,202.345 0.820,200.094 1.799 M390.400 1.790 C 390.400 1.894,390.951 2.264,391.624 2.612 C 393.493 3.579,395.930 5.937,397.071 7.885 C 397.635 8.848,398.192 9.542,398.307 9.426 C 398.587 9.147,396.540 6.057,395.242 4.800 C 393.378 2.995,390.400 1.143,390.400 1.790 M398.420 10.000 C 398.414 10.110,398.677 11.084,399.004 12.164 C 399.892 15.089,399.901 105.671,399.015 108.618 C 398.328 110.899,398.455 111.389,399.246 109.513 C 400.184 107.290,400.059 12.654,399.116 11.000 C 398.740 10.340,398.427 9.890,398.420 10.000 M191.443 13.033 C 191.107 13.907,191.191 107.236,191.528 108.085 C 191.678 108.462,191.800 87.087,191.800 60.585 C 191.800 34.083,191.774 12.400,191.743 12.400 C 191.711 12.400,191.576 12.685,191.443 13.033 M208.934 29.854 C 208.040 30.434,207.014 31.407,206.654 32.016 C 205.580 33.834,205.912 33.842,207.225 32.029 C 210.258 27.842,216.416 28.313,218.711 32.908 C 219.541 34.570,219.600 35.220,219.600 42.744 L 219.600 50.800 226.378 50.800 L 233.156 50.800 233.284 42.300 C 233.354 37.625,233.557 33.440,233.734 33.000 C 233.913 32.554,233.784 32.642,233.442 33.200 C 232.945 34.010,232.826 35.741,232.814 42.300 L 232.800 50.400 226.400 50.400 L 220.000 50.400 219.991 42.500 C 219.984 35.602,219.886 34.387,219.222 32.925 C 217.444 29.009,212.510 27.536,208.934 29.854 M236.600 29.544 C 235.240 30.384,233.688 32.000,234.242 32.000 C 234.443 32.000,234.815 31.668,235.068 31.262 C 235.742 30.183,238.080 29.200,239.973 29.200 C 242.840 29.200,244.427 30.171,246.276 33.057 C 246.539 33.466,246.764 33.581,246.776 33.314 C 246.925 30.238,239.769 27.587,236.600 29.544 M205.695 57.000 C 205.650 69.760,205.744 80.408,205.906 80.662 C 206.172 81.081,206.161 56.209,205.888 40.200 C 205.828 36.680,205.741 44.240,205.695 57.000 M246.987 57.000 C 246.987 69.760,247.038 75.038,247.100 68.729 C 247.162 62.419,247.162 51.979,247.100 45.529 C 247.038 39.078,246.987 44.240,246.987 57.000 M60.041 36.358 C 57.189 37.877,57.235 37.496,57.217 59.486 C 57.198 81.414,57.173 81.197,59.900 82.806 C 63.194 84.750,68.468 82.566,68.366 79.300 L 68.331 78.200 68.021 79.223 C 66.607 83.883,60.866 84.751,58.384 80.681 C 57.171 78.691,57.171 40.509,58.384 38.519 C 60.697 34.725,66.735 35.522,67.975 39.785 C 68.269 40.798,68.334 40.848,68.364 40.084 C 68.494 36.773,63.477 34.527,60.041 36.358 M138.552 36.865 C 136.103 38.052,135.999 38.831,136.006 56.054 C 136.009 64.715,136.144 72.008,136.306 72.263 C 136.468 72.517,136.551 65.407,136.492 56.463 C 136.371 38.258,136.334 38.520,139.249 37.084 C 139.992 36.718,140.330 36.426,140.000 36.436 C 139.670 36.446,139.019 36.639,138.552 36.865 M144.435 37.312 C 146.423 38.651,146.787 39.701,146.794 44.100 L 146.800 48.000 150.167 48.000 C 152.019 48.000,153.849 48.121,154.233 48.268 C 154.709 48.451,154.839 48.387,154.642 48.068 C 154.456 47.767,153.076 47.600,150.776 47.600 L 147.200 47.600 147.200 43.725 C 147.200 39.509,146.505 37.741,144.489 36.822 C 143.001 36.144,142.980 36.332,144.435 37.312 M309.400 47.151 C 308.740 47.293,310.090 47.408,312.400 47.408 C 314.710 47.408,316.060 47.293,315.400 47.151 C 314.740 47.010,313.390 46.895,312.400 46.895 C 311.410 46.895,310.060 47.010,309.400 47.151 M352.905 47.087 C 353.514 47.179,354.414 47.177,354.905 47.082 C 355.397 46.987,354.900 46.911,353.800 46.914 C 352.700 46.917,352.297 46.995,352.905 47.087 M69.700 47.464 C 68.985 47.567,68.400 47.800,68.400 47.983 C 68.400 48.166,69.165 48.137,70.100 47.920 C 71.774 47.532,76.235 47.694,77.800 48.201 C 78.551 48.444,78.555 48.431,77.863 47.990 C 77.079 47.489,71.868 47.154,69.700 47.464 M108.107 47.552 C 107.177 47.717,106.277 47.991,106.107 48.162 C 105.938 48.332,106.520 48.326,107.400 48.149 C 109.340 47.758,113.754 47.749,115.400 48.132 C 116.278 48.336,116.425 48.304,115.949 48.013 C 115.061 47.471,110.185 47.184,108.107 47.552 M169.894 47.744 C 168.845 48.039,167.855 48.425,167.694 48.604 C 167.532 48.782,167.746 48.803,168.168 48.650 C 171.025 47.619,174.907 47.460,177.563 48.267 C 178.141 48.443,178.142 48.423,177.568 48.048 C 176.486 47.343,171.958 47.164,169.894 47.744 M267.891 47.489 C 268.601 47.577,269.861 47.579,270.691 47.492 C 271.521 47.405,270.940 47.333,269.400 47.331 C 267.860 47.329,267.181 47.400,267.891 47.489 M3.431 47.950 C 3.312 48.143,3.991 48.213,4.941 48.105 C 7.084 47.864,8.933 48.744,10.016 50.519 C 10.861 51.905,11.056 51.798,10.381 50.319 C 9.466 48.314,4.295 46.552,3.431 47.950 M44.164 48.583 C 43.029 49.478,40.485 54.219,40.912 54.645 C 41.013 54.746,41.487 53.877,41.966 52.714 C 43.898 48.019,47.047 46.675,50.644 49.010 L 52.200 50.019 50.815 48.810 C 48.972 47.200,46.045 47.100,44.164 48.583 M121.575 48.558 C 120.267 49.447,120.068 49.476,118.836 48.958 C 118.106 48.651,117.304 48.406,117.054 48.413 C 116.804 48.420,117.461 48.806,118.514 49.270 L 120.427 50.114 121.374 49.224 C 123.287 47.428,127.270 47.888,128.421 50.038 C 128.923 50.978,129.348 50.852,128.974 49.876 C 128.158 47.751,123.883 46.990,121.575 48.558 M262.734 48.367 C 258.943 49.850,251.855 56.388,252.903 57.436 C 253.002 57.535,253.584 56.848,254.197 55.908 C 255.531 53.863,259.054 50.400,259.801 50.400 C 260.094 50.400,260.395 50.216,260.469 49.992 C 260.544 49.767,261.864 49.148,263.403 48.615 C 264.941 48.083,265.840 47.645,265.400 47.642 C 264.960 47.640,263.760 47.966,262.734 48.367 M274.000 48.144 C 274.770 48.442,275.850 48.808,276.400 48.957 L 277.400 49.229 276.400 48.662 C 275.850 48.350,274.770 47.984,274.000 47.848 L 272.600 47.602 274.000 48.144 M279.554 48.340 C 279.029 48.747,278.330 49.183,278.000 49.309 C 277.670 49.434,277.607 49.551,277.859 49.568 C 278.112 49.586,279.102 49.152,280.059 48.605 C 281.017 48.057,281.509 47.607,281.154 47.605 C 280.799 47.602,280.079 47.933,279.554 48.340 M284.365 48.319 C 287.428 49.847,287.385 49.623,287.524 64.929 C 287.663 80.255,287.564 81.063,285.371 82.418 C 284.594 82.898,284.052 83.385,284.166 83.500 C 284.542 83.876,286.421 82.384,287.218 81.078 C 288.254 79.379,288.432 53.009,287.424 50.596 C 286.851 49.225,284.746 47.587,283.600 47.621 C 283.270 47.630,283.614 47.945,284.365 48.319 M296.547 48.367 C 295.128 49.232,293.991 50.681,294.018 51.589 C 294.027 51.925,294.380 51.547,294.802 50.750 C 295.292 49.822,296.187 48.993,297.284 48.450 C 298.228 47.983,298.730 47.601,298.400 47.602 C 298.070 47.602,297.236 47.947,296.547 48.367 M301.707 48.600 C 303.751 49.650,303.547 49.672,307.200 48.032 C 308.170 47.597,308.164 47.591,307.000 47.819 C 306.340 47.948,305.295 48.303,304.678 48.608 C 303.678 49.100,303.415 49.076,302.278 48.382 C 301.575 47.954,300.730 47.607,300.400 47.612 C 300.070 47.617,300.658 48.061,301.707 48.600 M317.600 48.082 C 321.637 49.808,323.198 50.787,325.232 52.865 C 327.413 55.094,329.966 59.464,330.028 61.075 C 330.044 61.474,330.226 62.160,330.432 62.600 C 330.707 63.184,330.747 62.969,330.580 61.800 C 329.757 56.035,321.672 47.442,317.246 47.627 C 316.844 47.644,316.977 47.815,317.600 48.082 M338.000 48.248 C 335.286 49.947,335.411 48.908,335.295 70.800 C 335.178 92.672,335.137 92.270,337.729 94.172 C 339.054 95.143,342.828 95.336,343.680 94.475 C 344.109 94.042,344.003 94.024,343.074 94.375 C 340.424 95.375,337.603 94.358,336.380 91.961 C 335.639 90.508,335.600 89.480,335.601 71.316 C 335.601 49.529,335.515 50.149,338.785 48.500 C 339.856 47.960,340.256 47.604,339.785 47.611 C 339.353 47.616,338.550 47.903,338.000 48.248 M342.941 48.522 L 344.882 49.533 347.341 48.558 C 349.032 47.888,349.363 47.664,348.400 47.840 C 347.630 47.981,346.489 48.358,345.864 48.677 C 344.865 49.187,344.647 49.185,344.064 48.660 C 343.699 48.331,342.860 47.938,342.200 47.787 C 341.297 47.579,341.480 47.761,342.941 48.522 M358.400 47.768 C 358.400 47.860,359.255 48.222,360.300 48.572 C 364.825 50.086,371.175 56.938,371.206 60.341 C 371.209 60.703,371.400 61.270,371.630 61.600 C 372.498 62.845,371.495 59.388,370.297 57.007 C 368.180 52.795,358.400 45.200,358.400 47.768 M1.276 49.319 C 0.801 49.825,0.319 50.860,0.206 51.619 C 0.006 52.951,0.013 52.959,0.381 51.842 C 0.590 51.205,1.254 50.170,1.856 49.542 C 2.457 48.914,2.767 48.400,2.545 48.400 C 2.322 48.400,1.751 48.814,1.276 49.319 M156.164 49.631 C 159.419 53.498,156.393 57.200,149.978 57.200 L 146.731 57.200 146.866 63.833 L 147.000 70.467 148.306 71.633 C 149.388 72.599,149.964 72.800,151.653 72.800 C 153.491 72.800,153.849 72.955,155.247 74.353 C 156.861 75.967,157.252 76.023,156.176 74.487 C 155.323 73.269,153.520 72.400,151.846 72.400 C 147.908 72.400,147.200 71.007,147.200 63.261 L 147.200 57.695 151.050 57.527 C 155.826 57.318,157.600 55.975,157.600 52.568 C 157.600 50.736,156.444 48.400,155.537 48.400 C 155.313 48.400,155.595 48.954,156.164 49.631 M179.470 49.294 C 180.163 49.786,181.010 50.641,181.354 51.194 C 181.698 51.747,181.984 51.957,181.989 51.660 C 182.003 50.967,179.449 48.400,178.746 48.400 C 178.452 48.400,178.778 48.802,179.470 49.294 M25.000 49.085 C 24.106 49.300,22.000 51.148,22.000 51.717 C 22.000 51.919,22.501 51.548,23.113 50.893 C 24.618 49.282,26.387 48.932,28.302 49.868 C 29.795 50.597,30.369 51.459,32.389 56.000 C 32.830 56.990,33.084 57.350,32.954 56.800 C 32.022 52.858,29.967 49.764,27.884 49.167 C 26.540 48.781,26.292 48.774,25.000 49.085 M80.000 48.990 C 80.000 49.094,80.520 49.448,81.156 49.777 C 82.874 50.666,85.898 53.843,87.029 55.949 C 87.576 56.967,87.910 57.350,87.772 56.800 C 87.102 54.141,80.000 47.003,80.000 48.990 M101.738 50.020 C 98.512 51.901,93.093 58.826,94.077 59.810 C 94.178 59.911,94.683 59.050,95.201 57.897 C 96.316 55.411,100.855 50.670,102.964 49.789 C 103.754 49.459,104.400 49.102,104.400 48.995 C 104.400 48.597,103.747 48.849,101.738 50.020 M165.129 49.915 C 163.488 51.126,161.183 54.617,161.232 55.819 C 161.249 56.252,161.525 55.863,161.849 54.948 C 162.443 53.271,164.580 50.717,166.400 49.507 C 166.950 49.141,167.220 48.839,167.000 48.836 C 166.780 48.832,165.938 49.318,165.129 49.915 M52.442 51.767 C 52.730 52.812,52.726 53.636,52.428 54.492 C 51.881 56.061,51.889 56.271,52.477 55.683 C 53.088 55.072,53.099 51.339,52.491 50.731 C 52.140 50.380,52.128 50.632,52.442 51.767 M129.527 64.737 C 129.610 73.610,129.505 78.701,129.219 79.671 C 128.276 82.869,124.626 84.188,121.684 82.394 C 120.487 81.665,120.269 81.645,119.284 82.180 C 118.688 82.503,118.380 82.772,118.600 82.778 C 118.820 82.783,119.252 82.628,119.559 82.434 C 119.922 82.204,120.592 82.346,121.471 82.840 C 124.562 84.576,128.068 83.456,129.379 80.313 C 130.044 78.719,130.330 52.739,129.694 51.737 C 129.532 51.483,129.457 57.333,129.527 64.737 M11.023 52.900 C 11.175 53.395,11.554 54.250,11.864 54.800 L 12.429 55.800 12.161 54.800 C 11.720 53.153,11.235 52.000,10.983 52.000 C 10.853 52.000,10.871 52.405,11.023 52.900 M21.071 53.692 C 20.027 56.192,19.988 57.042,21.019 54.848 C 21.575 53.665,21.944 52.610,21.838 52.505 C 21.733 52.400,21.388 52.934,21.071 53.692 M0.028 54.074 C -0.007 54.922,0.757 56.976,1.013 56.721 C 1.118 56.616,0.945 55.826,0.630 54.965 C 0.314 54.104,0.044 53.703,0.028 54.074 M181.417 54.747 C 180.820 56.627,178.988 57.255,175.800 56.675 C 174.493 56.437,174.340 56.469,174.965 56.848 C 177.307 58.270,182.000 56.731,182.000 54.542 C 182.000 53.766,181.694 53.874,181.417 54.747 M40.065 56.045 C 39.277 58.149,39.259 58.897,40.036 57.264 C 40.490 56.309,40.763 55.429,40.642 55.309 C 40.521 55.188,40.261 55.519,40.065 56.045 M12.502 56.400 C 13.636 59.492,15.748 64.386,15.888 64.246 C 16.115 64.018,13.211 56.727,12.683 56.200 C 12.416 55.933,12.355 56.000,12.502 56.400 M171.616 56.981 C 170.528 58.292,172.161 60.134,174.800 60.570 C 176.283 60.816,175.886 60.555,173.313 59.594 C 171.877 59.058,171.284 57.863,172.016 56.981 C 172.281 56.661,172.408 56.400,172.298 56.400 C 172.188 56.400,171.881 56.661,171.616 56.981 M1.435 58.000 C 1.581 58.550,1.954 59.450,2.264 60.000 L 2.829 61.000 2.565 60.000 C 2.419 59.450,2.046 58.550,1.736 58.000 L 1.171 57.000 1.435 58.000 M19.265 58.045 C 18.477 60.149,18.459 60.897,19.236 59.264 C 19.690 58.309,19.963 57.429,19.842 57.309 C 19.721 57.188,19.461 57.519,19.265 58.045 M50.850 58.650 C 50.586 59.229,50.462 59.795,50.574 59.907 C 50.686 60.019,50.968 59.611,51.200 59.000 C 51.749 57.557,51.473 57.282,50.850 58.650 M33.214 58.220 C 33.222 58.429,33.499 59.050,33.831 59.600 L 34.433 60.600 34.172 59.600 C 33.899 58.557,33.189 57.533,33.214 58.220 M88.252 58.600 C 88.909 60.278,88.911 78.561,88.255 80.131 C 86.994 83.149,82.845 84.196,80.376 82.119 C 78.183 80.273,78.000 79.328,78.000 69.841 L 78.000 61.257 76.653 59.828 C 75.912 59.043,75.057 58.404,74.753 58.409 C 74.239 58.417,75.891 59.971,76.436 59.991 C 77.299 60.024,77.601 62.678,77.609 70.319 C 77.619 79.553,77.945 81.052,80.315 82.740 C 82.882 84.568,87.235 83.420,88.593 80.558 C 89.467 78.716,89.361 59.945,88.470 58.600 L 87.940 57.800 88.252 58.600 M310.274 58.386 C 307.519 59.263,305.136 62.152,305.241 64.487 C 305.274 65.225,305.338 65.169,305.571 64.200 C 306.535 60.207,310.320 57.819,314.100 58.819 C 316.641 59.492,318.521 61.452,319.263 64.200 C 319.548 65.257,319.565 65.216,319.411 63.858 C 318.975 60.008,314.187 57.140,310.274 58.386 M350.800 58.808 C 344.852 61.578,345.565 72.569,351.680 72.384 C 351.966 72.376,351.660 72.128,351.000 71.833 C 346.603 69.870,345.563 63.816,349.057 60.521 C 352.440 57.330,357.500 58.117,359.930 62.212 C 360.448 63.085,360.766 63.470,360.636 63.067 C 360.506 62.664,360.400 62.197,360.400 62.030 C 360.400 61.862,359.995 61.280,359.500 60.737 C 357.140 58.148,353.805 57.409,350.800 58.808 M70.492 59.021 C 70.005 59.362,69.401 60.037,69.151 60.521 C 68.773 61.251,68.925 61.198,70.048 60.203 C 70.792 59.545,71.571 58.870,71.780 58.703 C 72.515 58.117,71.385 58.395,70.492 59.021 M107.800 59.144 C 106.522 59.933,104.876 61.600,105.374 61.600 C 105.538 61.600,105.971 61.241,106.336 60.803 C 106.701 60.364,107.720 59.651,108.600 59.219 C 109.480 58.786,109.930 58.425,109.600 58.417 C 109.270 58.409,108.460 58.737,107.800 59.144 M113.600 58.894 C 116.853 60.540,118.400 62.766,118.400 65.800 C 118.400 68.843,116.759 71.191,113.600 72.668 C 113.050 72.925,112.834 73.150,113.120 73.168 C 115.612 73.323,118.800 69.190,118.800 65.804 C 118.800 63.085,116.109 58.800,114.402 58.800 C 114.217 58.800,113.736 58.707,113.333 58.594 C 112.930 58.481,113.050 58.616,113.600 58.894 M265.812 59.313 C 264.141 60.259,262.378 62.475,262.432 63.559 C 262.452 63.939,262.661 63.759,262.945 63.119 C 265.477 57.413,272.754 57.345,275.735 63.000 C 276.083 63.660,276.375 63.951,276.384 63.647 C 276.492 59.903,269.692 57.115,265.812 59.313 M251.600 60.400 C 251.351 61.324,251.226 62.159,251.321 62.255 C 251.417 62.350,251.690 61.663,251.927 60.727 C 252.165 59.791,252.290 58.957,252.206 58.873 C 252.122 58.788,251.849 59.476,251.600 60.400 M38.271 60.492 C 37.227 62.992,37.188 63.842,38.219 61.648 C 38.775 60.465,39.144 59.410,39.038 59.305 C 38.933 59.200,38.588 59.734,38.271 60.492 M161.418 61.000 C 161.897 63.495,165.170 67.061,168.152 68.337 C 170.139 69.187,169.650 68.632,167.353 67.429 C 164.926 66.159,162.723 63.753,161.793 61.358 C 161.308 60.109,161.234 60.038,161.418 61.000 M48.455 64.455 C 47.547 66.701,46.889 68.623,46.993 68.726 C 47.096 68.830,47.304 68.574,47.453 68.157 C 47.603 67.741,48.339 65.897,49.089 64.059 C 49.839 62.222,50.374 60.641,50.279 60.546 C 50.184 60.450,49.363 62.210,48.455 64.455 M93.368 61.270 C 92.880 62.755,93.021 69.762,93.557 70.627 C 93.980 71.311,94.012 71.262,93.839 70.200 C 93.230 66.473,93.194 65.531,93.568 63.204 C 93.995 60.558,93.900 59.648,93.368 61.270 M34.436 60.851 C 34.416 60.989,34.691 61.799,35.048 62.651 C 35.404 63.503,35.874 64.650,36.092 65.200 C 36.469 66.151,36.504 66.161,36.816 65.400 C 37.288 64.247,37.264 64.002,36.700 64.207 C 36.405 64.315,35.846 63.614,35.336 62.495 C 34.860 61.453,34.455 60.713,34.436 60.851 M177.653 61.573 C 178.453 62.012,179.848 63.213,180.753 64.242 C 182.480 66.204,182.954 66.302,181.614 64.420 C 180.615 63.017,178.493 61.394,177.200 61.045 C 176.512 60.859,176.653 61.024,177.653 61.573 M2.800 61.283 C 2.800 61.604,5.578 68.437,6.007 69.169 C 6.807 70.538,6.324 69.013,4.786 65.317 C 3.293 61.731,2.800 60.729,2.800 61.283 M17.423 62.606 C 17.081 63.426,16.800 64.256,16.800 64.449 C 16.800 64.642,16.620 64.800,16.400 64.800 C 16.180 64.800,16.000 64.980,16.000 65.200 C 16.000 65.420,16.156 65.600,16.347 65.600 C 16.742 65.600,18.503 61.569,18.227 61.294 C 18.128 61.195,17.766 61.785,17.423 62.606 M104.411 62.971 C 102.848 67.081,106.054 73.295,109.680 73.184 C 109.966 73.175,109.480 72.809,108.600 72.371 C 105.072 70.613,103.238 66.119,104.832 63.139 C 105.070 62.695,105.165 62.232,105.044 62.110 C 104.922 61.989,104.637 62.376,104.411 62.971 M372.131 65.400 C 372.133 66.940,372.205 67.521,372.292 66.691 C 372.379 65.861,372.377 64.601,372.289 63.891 C 372.200 63.181,372.129 63.860,372.131 65.400 M219.691 71.500 L 219.782 79.800 219.900 71.700 L 220.017 63.600 226.408 63.600 L 232.800 63.600 232.814 71.700 C 232.826 78.259,232.945 79.990,233.442 80.800 C 233.779 81.350,233.908 81.440,233.728 81.000 C 233.547 80.560,233.348 76.375,233.285 71.700 L 233.170 63.200 226.385 63.200 L 219.600 63.200 219.691 71.500 M250.931 65.800 C 250.933 67.340,251.005 67.921,251.092 67.091 C 251.179 66.261,251.177 65.001,251.089 64.291 C 251.000 63.581,250.929 64.260,250.931 65.800 M360.893 65.600 C 360.893 66.370,360.975 66.685,361.076 66.300 C 361.176 65.915,361.176 65.285,361.076 64.900 C 360.975 64.515,360.893 64.830,360.893 65.600 M305.243 66.313 C 305.158 68.131,307.564 72.000,308.781 72.000 C 309.011 72.000,308.493 71.293,307.629 70.429 C 306.579 69.379,305.931 68.286,305.672 67.129 C 305.458 66.169,305.267 65.806,305.243 66.313 M319.075 67.106 C 318.868 68.338,318.347 69.253,317.194 70.406 C 316.317 71.283,315.790 72.000,316.023 72.000 C 317.326 72.000,319.855 67.725,319.511 66.103 C 319.429 65.716,319.233 66.168,319.075 67.106 M182.430 66.620 C 182.447 66.829,182.719 67.630,183.036 68.400 L 183.610 69.800 183.398 68.413 C 183.211 67.195,182.348 65.597,182.430 66.620 M27.035 67.800 C 27.660 69.827,28.137 71.031,28.455 71.380 C 29.070 72.058,28.788 71.076,27.770 69.000 C 27.230 67.900,26.900 67.360,27.035 67.800 M360.400 67.786 C 360.400 68.661,357.987 71.241,356.607 71.843 C 355.943 72.132,355.634 72.376,355.920 72.384 C 356.719 72.408,358.503 71.380,359.470 70.338 C 360.308 69.435,361.144 67.200,360.643 67.200 C 360.510 67.200,360.400 67.464,360.400 67.786 M23.550 72.865 C 20.901 79.394,21.009 79.094,21.489 78.600 C 22.004 78.070,26.083 67.949,25.867 67.734 C 25.775 67.642,24.733 69.951,23.550 72.865 M262.400 68.041 C 262.399 70.356,266.220 73.183,269.365 73.193 C 272.502 73.204,276.463 70.245,276.380 67.953 C 276.369 67.649,276.009 68.120,275.579 69.000 C 274.389 71.437,272.393 72.600,269.400 72.600 C 266.411 72.600,264.415 71.442,263.198 69.000 C 262.759 68.120,262.400 67.688,262.400 68.041 M329.915 70.023 C 329.567 71.440,329.342 72.664,329.417 72.743 C 329.649 72.988,330.870 68.411,330.705 67.915 C 330.619 67.657,330.263 68.605,329.915 70.023 M171.441 69.571 C 174.082 70.772,174.108 72.799,171.491 73.555 C 170.461 73.852,170.386 73.935,171.118 73.964 C 174.507 74.097,174.401 69.697,171.000 69.052 C 169.988 68.860,170.058 68.941,171.441 69.571 M371.414 70.000 C 370.633 73.576,365.307 80.800,363.451 80.800 C 363.130 80.800,362.805 80.984,362.731 81.208 C 362.656 81.433,361.336 82.068,359.797 82.621 C 358.118 83.223,357.559 83.537,358.400 83.406 C 364.140 82.510,373.210 72.899,371.895 69.106 C 371.799 68.828,371.582 69.230,371.414 70.000 M45.833 70.833 C 45.467 71.750,45.242 72.575,45.333 72.667 C 45.425 72.758,45.800 72.083,46.167 71.167 C 46.533 70.250,46.758 69.425,46.667 69.333 C 46.575 69.242,46.200 69.917,45.833 70.833 M251.230 70.000 C 251.233 70.330,251.491 71.140,251.802 71.800 L 252.367 73.000 252.130 71.800 C 251.832 70.298,251.221 69.075,251.230 70.000 M6.427 70.095 C 6.400 70.386,8.708 76.201,9.827 78.660 C 10.142 79.354,10.406 80.074,10.413 80.260 C 10.566 84.167,19.426 84.568,20.765 80.730 C 21.416 78.861,21.286 78.824,20.285 80.592 C 17.331 85.807,12.517 84.027,9.405 76.569 C 7.128 71.112,6.466 69.673,6.427 70.095 M183.701 71.800 C 183.705 72.680,183.787 72.993,183.883 72.495 C 183.979 71.998,183.975 71.278,183.875 70.895 C 183.775 70.513,183.696 70.920,183.701 71.800 M94.034 71.640 C 93.649 74.385,101.379 82.827,104.249 82.796 C 104.442 82.794,103.790 82.314,102.800 81.729 C 99.237 79.623,96.438 76.607,94.887 73.200 C 94.436 72.210,94.052 71.508,94.034 71.640 M29.058 72.800 C 29.486 74.520,30.013 75.720,30.242 75.491 C 30.363 75.371,30.090 74.491,29.636 73.536 C 29.182 72.581,28.922 72.250,29.058 72.800 M162.789 72.659 C 161.715 73.373,160.800 74.380,160.800 74.846 C 160.800 75.007,161.317 74.622,161.949 73.990 C 163.397 72.542,164.906 72.156,166.972 72.708 C 168.851 73.209,169.415 73.014,167.829 72.411 C 166.221 71.800,163.909 71.913,162.789 72.659 M311.700 72.676 C 312.085 72.776,312.715 72.776,313.100 72.676 C 313.485 72.575,313.170 72.493,312.400 72.493 C 311.630 72.493,311.315 72.575,311.700 72.676 M353.105 72.683 C 353.602 72.779,354.322 72.775,354.705 72.675 C 355.087 72.575,354.680 72.496,353.800 72.501 C 352.920 72.505,352.607 72.587,353.105 72.683 M44.049 75.263 C 43.578 76.397,43.282 77.415,43.391 77.524 C 43.585 77.718,44.431 75.894,44.979 74.100 C 45.477 72.468,44.922 73.163,44.049 75.263 M136.988 74.200 C 137.698 77.470,143.094 82.831,145.635 82.791 C 145.946 82.786,145.446 82.440,144.524 82.021 C 142.000 80.876,139.228 78.103,137.903 75.400 C 137.180 73.923,136.828 73.462,136.988 74.200 M252.400 73.477 C 252.400 74.677,257.264 80.418,259.000 81.267 C 259.440 81.482,259.021 80.989,258.069 80.170 C 257.117 79.352,255.452 77.421,254.369 75.878 C 253.286 74.336,252.400 73.256,252.400 73.477 M327.686 75.127 C 325.334 78.758,321.299 81.862,317.719 82.796 C 316.663 83.072,316.000 83.372,316.245 83.463 C 318.700 84.382,330.734 75.000,329.142 73.408 C 329.028 73.294,328.373 74.067,327.686 75.127 M182.930 75.209 C 182.671 76.190,182.531 77.065,182.619 77.152 C 182.907 77.440,183.639 75.070,183.518 74.239 C 183.443 73.724,183.227 74.080,182.930 75.209 M377.283 74.592 C 374.202 77.184,375.454 83.600,379.040 83.600 C 379.499 83.600,379.151 83.205,378.082 82.512 C 374.579 80.240,375.153 75.552,379.133 73.928 C 379.754 73.675,379.754 73.654,379.131 73.628 C 378.763 73.613,377.931 74.046,377.283 74.592 M383.672 75.100 C 384.233 75.705,384.892 76.560,385.134 77.000 C 385.497 77.658,385.578 77.681,385.588 77.131 C 385.602 76.347,383.730 74.000,383.090 74.000 C 382.848 74.000,383.110 74.495,383.672 75.100 M160.158 76.625 C 160.016 77.189,160.076 78.044,160.291 78.525 C 160.609 79.237,160.674 79.047,160.641 77.500 C 160.594 75.328,160.518 75.190,160.158 76.625 M30.446 76.200 C 30.453 76.420,30.806 77.320,31.229 78.200 C 31.652 79.080,31.886 79.350,31.749 78.800 C 31.467 77.667,30.425 75.588,30.446 76.200 M156.909 78.000 C 156.909 78.990,156.987 79.395,157.082 78.900 C 157.178 78.405,157.178 77.595,157.082 77.100 C 156.987 76.605,156.909 77.010,156.909 78.000 M179.929 80.046 C 178.680 81.341,177.817 82.400,178.010 82.400 C 178.486 82.400,182.400 78.460,182.400 77.981 C 182.400 77.466,182.491 77.390,179.929 80.046 M42.033 80.012 C 40.372 83.687,36.029 84.408,33.325 81.457 C 31.964 79.973,31.703 79.898,32.395 81.191 C 33.582 83.409,37.843 84.303,40.245 82.838 C 41.370 82.152,43.550 78.616,43.116 78.182 C 43.019 78.086,42.532 78.909,42.033 80.012 M160.800 79.883 C 160.800 81.254,164.731 83.407,167.885 83.762 L 169.800 83.978 167.600 83.442 C 164.343 82.649,163.232 82.119,161.953 80.750 C 161.319 80.071,160.800 79.681,160.800 79.883 M384.716 80.817 C 384.348 81.459,383.451 82.361,382.723 82.823 C 381.621 83.521,381.567 83.615,382.400 83.384 C 383.696 83.023,384.799 82.043,385.257 80.845 C 385.782 79.472,385.496 79.457,384.716 80.817 M155.457 81.466 C 154.821 82.213,154.589 82.702,154.933 82.570 C 155.534 82.340,156.997 80.435,156.732 80.228 C 156.659 80.171,156.086 80.728,155.457 81.466 M218.346 81.793 C 217.647 82.925,216.740 83.745,215.653 84.225 C 213.815 85.035,213.656 85.462,215.445 84.785 C 216.887 84.238,218.296 82.946,219.068 81.463 C 219.994 79.681,219.513 79.901,218.346 81.793 M245.567 81.900 C 244.997 82.784,243.860 83.763,242.800 84.284 C 241.810 84.769,241.234 85.174,241.520 85.184 C 242.885 85.227,246.800 81.967,246.800 80.786 C 246.800 80.135,246.572 80.341,245.567 81.900 M206.987 82.524 C 207.698 83.608,210.598 85.334,211.309 85.096 C 211.579 85.005,211.131 84.709,210.313 84.439 C 209.495 84.168,208.382 83.419,207.839 82.773 C 206.662 81.375,206.133 81.220,206.987 82.524 M260.000 81.845 C 260.000 82.140,263.636 83.697,263.843 83.491 C 263.940 83.394,263.115 82.939,262.009 82.479 C 260.904 82.020,260.000 81.734,260.000 81.845 M234.830 83.038 C 235.887 84.169,237.656 85.209,238.480 85.184 C 238.766 85.175,238.280 84.814,237.400 84.381 C 236.520 83.949,235.501 83.236,235.136 82.797 C 234.771 82.359,234.334 82.000,234.166 82.000 C 233.998 82.000,234.297 82.467,234.830 83.038 M277.200 82.289 C 276.870 82.413,276.170 82.674,275.645 82.869 C 275.119 83.063,274.782 83.315,274.895 83.428 C 275.008 83.541,275.826 83.343,276.714 82.988 C 278.185 82.399,278.435 82.398,279.544 82.971 C 281.274 83.866,281.647 83.748,280.090 82.799 C 278.750 81.981,278.251 81.893,277.200 82.289 M176.279 82.655 C 176.139 82.795,175.074 83.154,173.912 83.454 C 171.873 83.980,171.861 83.992,173.548 83.787 C 175.142 83.594,177.985 82.454,176.967 82.416 C 176.728 82.407,176.419 82.515,176.279 82.655 M306.400 82.973 C 307.170 83.284,308.070 83.547,308.400 83.557 C 309.452 83.589,307.987 82.924,306.400 82.649 L 305.000 82.407 306.400 82.973 M346.484 86.700 L 346.569 91.000 346.699 86.878 C 346.814 83.205,346.903 82.777,347.514 82.959 C 349.581 83.572,350.628 83.619,349.200 83.034 C 346.398 81.887,346.390 81.898,346.484 86.700 M105.036 83.196 C 105.254 83.414,106.325 83.684,107.416 83.796 L 109.400 84.000 107.200 83.417 C 104.514 82.705,104.549 82.709,105.036 83.196 M115.400 83.442 L 113.400 83.990 115.162 83.780 C 116.130 83.665,117.210 83.403,117.562 83.198 C 118.395 82.710,117.848 82.772,115.400 83.442 M147.113 83.272 C 148.059 83.647,153.510 83.670,153.738 83.300 C 153.839 83.135,152.236 83.000,150.174 83.000 C 148.113 83.000,146.736 83.122,147.113 83.272 M265.276 84.060 C 265.784 84.203,267.640 84.320,269.400 84.320 C 271.160 84.320,273.016 84.203,273.524 84.060 C 274.032 83.917,272.176 83.800,269.400 83.800 C 266.624 83.800,264.768 83.917,265.276 84.060 M310.900 83.891 C 311.725 83.978,313.075 83.978,313.900 83.891 C 314.725 83.805,314.050 83.734,312.400 83.734 C 310.750 83.734,310.075 83.805,310.900 83.891 M352.291 83.889 C 353.001 83.977,354.261 83.979,355.091 83.892 C 355.921 83.805,355.340 83.733,353.800 83.731 C 352.260 83.729,351.581 83.800,352.291 83.889 M110.700 84.282 C 111.195 84.378,112.005 84.378,112.500 84.282 C 112.995 84.187,112.590 84.109,111.600 84.109 C 110.610 84.109,110.205 84.187,110.700 84.282 M304.305 91.748 C 302.453 95.633,296.712 95.698,294.864 91.855 C 294.569 91.241,294.236 90.831,294.125 90.942 C 293.082 91.984,297.312 95.200,299.725 95.200 C 301.841 95.200,305.587 92.161,305.136 90.809 C 305.050 90.549,304.676 90.972,304.305 91.748 M345.240 92.431 C 344.739 93.109,344.415 93.748,344.519 93.853 C 344.744 94.077,346.400 92.047,346.400 91.546 C 346.400 90.981,346.199 91.135,345.240 92.431 M192.000 109.346 C 192.000 109.854,193.155 112.400,193.385 112.400 C 193.509 112.400,193.333 111.734,192.993 110.921 C 192.365 109.419,192.000 108.840,192.000 109.346 M397.296 112.704 C 396.191 114.658,393.457 117.288,391.200 118.569 C 389.105 119.758,389.338 119.956,391.516 118.838 C 394.076 117.524,399.038 112.104,398.330 111.396 C 398.227 111.293,397.762 111.882,397.296 112.704 M193.999 113.560 C 194.726 114.976,197.896 117.931,199.644 118.822 C 202.002 120.026,202.043 119.724,199.705 118.361 C 198.553 117.690,196.687 116.119,195.558 114.870 C 194.430 113.622,193.728 113.032,193.999 113.560 M202.438 119.998 C 202.790 120.203,203.870 120.467,204.838 120.585 C 206.504 120.787,206.481 120.767,204.400 120.216 C 201.799 119.528,201.596 119.505,202.438 119.998 M386.600 120.242 L 384.600 120.790 386.362 120.580 C 387.330 120.465,388.410 120.203,388.762 119.998 C 389.595 119.510,389.048 119.572,386.600 120.242 "
              stroke="none" fill="#fdd7ce" fill-rule="evenodd"></path>
    </g>
</svg>