<svg version="1.1" id="Layer_1" xmlns="http://www.w3.org/2000/svg" xmlns:xlink="http://www.w3.org/1999/xlink" x="0px" y="0px"
	 width="784px" height="228px" viewBox="0 0 784 228" enable-background="new 0 0 784 228" xml:space="preserve">
<path fill="#FF6633" d="M783.253,195.586c0,17.498-14.187,31.683-31.683,31.683H424.424c-17.498,0-31.685-14.185-31.685-31.683
	V31.89c0-17.501,14.187-31.684,31.685-31.684H751.57c17.496,0,31.683,14.183,31.683,31.684V195.586z"/>
<g>
  <!-- H2 -->
  <path fill="#FFFFFF" stroke="#FFFFFF" stroke-miterlimit="10" d="M494.826,67.694v79.047c0,5.84-4.889,10.729-10.729,10.729
    c-5.976,0-10.729-4.89-10.729-10.729v-30.018H444.03v30.018c0,5.84-4.752,10.729-10.729,10.729c-5.839,0-10.728-4.89-10.728-10.729
    V67.694c0-5.841,4.889-10.73,10.728-10.73c5.979,0,10.729,4.89,10.729,10.73v30.015h29.338V67.694
    c0-5.841,4.754-10.73,10.729-10.73C489.938,56.964,494.826,61.854,494.826,67.694z"/>
	<!-- A2 -->
  <path fill="#FFFFFF" d="M573.872,99.747v47.538c0,5.567-4.619,10.187-10.188,10.187c-2.986,0-5.703-1.358-7.605-3.261
    c-5.159,2.717-10.729,4.346-16.977,4.346c-19.15,0-34.771-15.617-34.771-34.77c0-19.149,15.619-34.771,34.771-34.771
    c5.976,0,11.543,1.632,16.705,4.348c1.901-2.444,4.617-3.802,7.877-3.802C569.253,89.561,573.872,94.178,573.872,99.747z
     M552.276,123.786c0-7.333-5.841-13.174-13.175-13.174c-7.335,0-13.175,5.841-13.175,13.174c0,7.335,5.84,13.175,13.175,13.175
    C546.438,136.961,552.276,131.121,552.276,123.786z"/>
	<!-- P1 -->
  <path fill="#FFFFFF" d="M619.504,158.014c-4.618,0-9.1-0.95-13.175-2.58v12.631c0,5.84-4.754,10.729-10.729,10.729h-0.95
    c-5.434-0.271-9.914-4.754-9.914-10.322V99.747c0-5.568,4.616-10.187,10.186-10.187c3.124,0,5.705,1.223,7.605,3.26
    c5.025-2.715,10.866-4.347,16.979-4.347c19.15,0,34.771,15.618,34.771,34.771S638.654,158.014,619.504,158.014z M619.504,110.07
    c-7.335,0-13.175,5.839-13.175,13.174c0,7.334,5.84,13.174,13.175,13.174c7.334,0,13.174-5.84,13.174-13.174
    C632.678,115.909,626.838,110.07,619.504,110.07z"/>
	<!-- P2 -->
  <path fill="#FFFFFF" d="M696.512,158.014c-4.617,0-9.1-0.95-13.175-2.58v12.631c0,5.84-4.754,10.729-10.729,10.729h-0.951
    c-5.433-0.271-9.914-4.754-9.914-10.322V99.747c0-5.568,4.617-10.187,10.186-10.187c3.124,0,5.705,1.223,7.605,3.26
    c5.026-2.715,10.866-4.347,16.979-4.347c19.15,0,34.771,15.618,34.771,34.771S715.662,158.014,696.512,158.014z M696.512,110.07
    c-7.335,0-13.175,5.839-13.175,13.174c0,7.334,5.84,13.174,13.175,13.174c7.334,0,13.174-5.84,13.174-13.174
    C709.686,115.909,703.846,110.07,696.512,110.07z"/>
     <!-- full stop -->
  <path fill="#FFFFFF" d="M756.133,147.69c0,5.435-4.347,9.779-9.779,9.779c-5.297,0-9.644-4.346-9.644-9.779
    c0-5.296,4.347-9.643,9.644-9.643C751.786,138.049,756.133,142.396,756.133,147.69z"/>
</g>
	<!-- white box -->
<path fill="#FFFFFF" d="M391.262,195.586c0,17.498-14.188,31.683-31.683,31.683H32.433c-17.498,0-31.686-14.185-31.686-31.683V31.89
	c0-17.501,14.188-31.684,31.686-31.684h327.146c17.495,0,31.683,14.183,31.683,31.684V195.586L391.262,195.586z"/>
<g>
 <!-- W -->
	<path fill="#FF6633" stroke="#FFFFFF" stroke-miterlimit="10" d="M121.717,104.229l-19.015,46.589
		c-2.58,6.246-7.606,6.653-10.05,6.653c-3.668,0-8.014-1.9-9.643-5.841l-10.322-25.535L62.229,151.63
		c-1.495,3.668-5.026,5.841-8.692,5.841c-2.444,0-8.421-0.407-11.001-6.653L23.52,104.229c-2.309-5.566,0.409-11.679,5.841-13.987
		c5.568-2.31,11.814,0.271,13.988,5.839l10.594,25.941l9.915-24.178c1.495-3.667,5.026-5.839,8.83-5.839
		c3.667,0,7.198,2.173,8.692,5.839l9.915,24.178l10.593-25.941c2.173-5.568,8.557-8.148,13.99-5.839
		C121.309,92.549,124.026,98.662,121.717,104.229z"/>
	<!-- H -->
	<path fill="#FF6633" stroke="#FFFFFF" stroke-miterlimit="10" d="M190.302,118.897v27.708c0,5.976-4.889,10.864-10.866,10.864
		c-5.975,0-10.864-4.89-10.864-10.864v-27.708c0-4.617-3.802-8.422-8.42-8.422c-4.481,0-8.285,3.805-8.285,8.422v27.708
		c0,5.976-4.889,10.864-10.866,10.864c-6.111,0-11.001-4.89-11.001-10.864V78.015c0-6.11,4.89-11.001,11.001-11.001
		c5.977,0,10.866,4.891,10.866,11.001v11.816c2.717-0.68,5.433-1.086,8.285-1.086C176.855,88.746,190.302,102.191,190.302,118.897z"
		/>
	<!-- A -->
	<path fill="#FF6633" stroke="#FFFFFF" stroke-miterlimit="10" d="M265.954,99.747v47.538c0,5.567-4.617,10.187-10.188,10.187
		c-2.986,0-5.703-1.358-7.605-3.261c-5.16,2.717-10.729,4.346-16.977,4.346c-19.15,0-34.77-15.617-34.77-34.77
		c0-19.149,15.619-34.771,34.77-34.771c5.976,0,11.543,1.632,16.705,4.348c1.902-2.444,4.618-3.802,7.877-3.802
		C261.336,89.561,265.954,94.178,265.954,99.747z M244.358,123.786c0-7.333-5.842-13.174-13.175-13.174
		c-7.334,0-13.174,5.841-13.174,13.174c0,7.335,5.84,13.175,13.174,13.175C238.517,136.961,244.358,131.121,244.358,123.786z"/>
	<!-- t -->
	<path fill="#FF6633" stroke="#FFFFFF" stroke-miterlimit="10" d="M317.154,146.605c0,5.976-4.89,10.864-10.865,10.864h-2.038
		c-16.027,0-27.435-12.632-27.435-28.386V78.83c0-5.975,4.889-10.865,10.865-10.865c5.978,0,10.865,4.891,10.865,10.865V89.56h9.915
		c5.297,0,9.508,4.21,9.508,9.509c0,5.16-4.21,9.37-9.508,9.37h-9.915v20.646c0,3.395,1.766,6.655,5.704,6.655h2.038
		C312.265,135.74,317.154,140.629,317.154,146.605z"/>
	<!-- s -->
	<path fill="#FF6633" stroke="#FFFFFF" stroke-miterlimit="10" d="M350.7,107.49c-2.58-0.815-6.384-1.767-7.062,1.221
		c-0.68,2.717,4.211,4.075,6.247,4.483c4.075,0.814,8.015,3.124,10.866,6.247c6.248,6.52,7.607,16.842,4.075,24.991
		c-3.667,8.421-12.087,13.445-21.051,13.988c-5.026,0.271-15.483-1.086-19.693-6.655c-5.297-7.062-0.136-16.979,8.419-16.568
		c3.397,0.136,7.063,2.717,9.917,2.853c4.889,0.407,5.975-5.569,1.357-6.79c-8.558-2.582-14.806-5.978-18.742-13.855
		c-2.854-5.976-2.173-13.445,1.899-18.878c6.521-8.828,18.881-11.816,29.066-7.877c5.433,2.173,9.914,7.74,6.519,13.717
		C360.072,108.439,355.861,109.254,350.7,107.49z"/>
</g>
</svg>
