<?xml version="1.0" standalone="no"?>
<!DOCTYPE svg PUBLIC "-//W3C//DTD SVG 20010904//EN"
 "http://www.w3.org/TR/2001/REC-SVG-20010904/DTD/svg10.dtd">
<svg version="1.0" xmlns="http://www.w3.org/2000/svg"
 width="922.000000pt" height="922.000000pt" viewBox="0 0 922.000000 922.000000"
 preserveAspectRatio="xMidYMid meet">
<metadata>
Created by potrace 1.11, written by Peter Selinger 2001-2013
</metadata>
<g transform="translate(0.000000,922.000000) scale(0.100000,-0.100000)"
fill="#000000" stroke="none">
<path d="M590 7255 c-65 -15 -101 -27 -152 -49 -21 -9 -41 -17 -45 -18 -5 -1
-16 -9 -26 -18 -9 -9 -30 -23 -45 -31 -47 -25 -168 -153 -210 -225 -48 -81
-90 -199 -99 -281 -7 -66 -8 -3955 -1 -4049 3 -34 7 -65 10 -70 3 -5 11 -31
18 -59 7 -27 17 -54 21 -60 5 -5 9 -15 9 -22 0 -16 53 -104 95 -157 38 -50
106 -114 156 -147 22 -14 37 -29 34 -32 -3 -4 -2 -5 1 -3 3 2 38 -11 77 -29
40 -18 97 -38 127 -45 30 -7 66 -15 80 -19 14 -4 1803 -6 3975 -5 3650 2 3956
4 4025 19 250 56 466 255 535 495 10 36 22 70 26 76 5 6 8 933 8 2060 -1 1990
-1 2051 -20 2124 -11 41 -30 99 -44 128 -14 29 -25 57 -25 61 0 5 -4 11 -9 13
-5 2 -11 9 -13 16 -5 21 -172 205 -181 200 -1 -1 -22 11 -47 27 -61 39 -162
80 -240 99 -58 14 -501 15 -4025 15 -3215 -1 -3970 -3 -4015 -14z m484 -1274
c67 -29 129 -92 161 -164 l29 -62 -1 -356 0 -355 286 0 286 1 1 350 c1 377 3
395 54 470 62 90 145 137 253 144 64 4 182 -32 170 -52 -3 -6 -1 -7 5 -3 23
14 127 -111 135 -162 2 -12 6 -25 10 -28 4 -4 7 -456 7 -1004 0 -1091 3 -1037
-59 -1125 -15 -22 -34 -38 -42 -37 -8 2 -11 1 -7 -3 4 -4 2 -13 -5 -19 -22
-20 -67 -47 -67 -39 0 5 -4 2 -8 -4 -5 -7 -34 -18 -67 -25 -63 -12 -152 0
-208 28 -75 39 -143 129 -163 214 -4 19 -8 188 -8 375 l-1 340 -285 0 -285 0
-1 -355 -1 -355 -28 -62 c-32 -72 -93 -134 -163 -166 -73 -33 -190 -30 -262 7
-70 36 -135 106 -160 174 -19 51 -20 79 -20 1047 0 972 0 995 20 1048 21 55
82 129 135 162 75 47 203 54 289 16z m4486 -809 c302 -83 545 -344 597 -642
10 -56 9 -251 -1 -305 -8 -45 -43 -149 -59 -180 -6 -11 -11 -22 -12 -25 0 -10
-59 -105 -72 -118 -7 -7 -13 -16 -13 -20 -1 -14 -94 -105 -156 -153 -157 -119
-315 -169 -514 -165 -119 3 -280 37 -280 59 0 6 -3 8 -6 4 -3 -3 -7 -86 -8
-184 -2 -98 -5 -185 -7 -193 -17 -52 -21 -60 -31 -54 -6 4 -8 2 -5 -3 9 -14
-38 -64 -86 -93 -48 -28 -140 -37 -204 -19 -72 20 -147 98 -163 170 -8 40 -10
281 -8 904 l3 850 27 46 c27 46 90 103 102 92 3 -4 6 -1 6 5 0 14 52 25 111
23 58 -1 117 -23 143 -54 l20 -22 45 22 c56 27 165 62 228 73 83 14 261 4 343
-18z m1837 -1 c80 -23 252 -108 260 -128 3 -7 9 -13 14 -13 8 0 25 -13 74 -57
47 -42 155 -184 155 -204 0 -7 6 -20 13 -28 20 -24 56 -130 72 -213 18 -92 13
-261 -10 -348 -42 -161 -125 -293 -270 -429 -34 -32 -147 -101 -156 -95 -5 3
-9 1 -9 -4 0 -11 -38 -29 -100 -49 -46 -15 -50 -16 -135 -32 -105 -21 -316 1
-417 43 -15 7 -16 -10 -20 -181 -4 -177 -5 -191 -28 -232 -60 -107 -189 -156
-314 -119 -59 18 -139 100 -154 158 -14 57 -16 1707 -1 1761 14 54 49 100 102
133 85 52 182 51 267 -4 l47 -30 39 19 c60 29 155 59 210 67 27 3 51 8 53 10
13 12 243 -7 308 -25z m-3837 10 c25 -5 59 -12 77 -16 18 -3 45 -10 60 -17 15
-6 36 -13 46 -15 10 -1 36 -12 59 -24 l40 -21 27 25 c116 109 309 69 377 -78
l24 -50 0 -606 c0 -682 2 -665 -73 -742 -83 -85 -224 -93 -319 -18 l-26 21
-84 -33 c-123 -50 -171 -59 -302 -62 -135 -3 -212 11 -324 57 -243 100 -424
310 -488 568 -30 118 -25 308 10 425 49 163 151 318 267 407 17 13 37 29 44
36 47 43 233 123 319 136 22 4 41 8 43 9 8 8 185 7 223 -2z m4874 -1163 c82
-25 156 -127 156 -214 0 -44 -20 -108 -38 -121 -9 -7 -12 -13 -7 -13 5 0 -2
-12 -16 -26 -35 -39 -116 -74 -170 -74 -53 0 -154 44 -143 62 4 6 3 8 -4 4
-13 -8 -55 47 -69 89 -14 42 -13 133 1 148 7 7 11 17 9 22 -6 20 62 88 111
111 57 27 108 30 170 12z"/>
<path d="M5255 4677 c-65 -22 -139 -81 -171 -139 -5 -10 -12 -16 -15 -14 -3 3
-5 -3 -6 -12 -1 -9 -8 -39 -15 -67 -26 -90 11 -213 86 -286 65 -64 148 -94
240 -87 66 6 153 41 174 70 7 10 19 15 25 12 7 -4 9 -4 5 1 -4 4 4 21 18 38
13 16 31 45 39 65 15 35 32 138 26 157 -2 6 -9 31 -15 57 -15 57 -68 128 -117
160 -21 13 -34 27 -31 32 3 5 0 6 -5 3 -6 -4 -30 0 -54 9 -48 16 -136 17 -184
1z"/>
<path d="M7100 4680 c-89 -29 -160 -87 -198 -163 -51 -102 -32 -268 37 -331
11 -10 18 -24 14 -30 -3 -6 -3 -8 1 -4 5 4 17 -1 27 -11 10 -9 40 -28 66 -42
40 -20 62 -24 133 -23 100 1 156 22 216 83 66 65 89 122 88 221 0 95 -17 144
-72 204 -17 19 -28 37 -24 41 4 4 2 6 -3 4 -12 -3 -65 22 -65 31 0 4 -6 7 -12
8 -7 0 -31 5 -53 11 -47 12 -119 13 -155 1z"/>
<path d="M3375 4670 c-48 -12 -101 -38 -114 -54 -7 -9 -17 -13 -22 -10 -5 3
-8 1 -7 -4 2 -5 -8 -23 -22 -39 -36 -42 -45 -61 -60 -122 -16 -70 -8 -150 24
-215 32 -65 70 -104 138 -141 47 -27 62 -30 138 -30 72 1 93 5 137 27 87 45
137 113 167 226 9 37 9 61 0 107 -14 73 -20 90 -53 135 -37 50 -59 68 -122 99
-60 29 -143 38 -204 21z"/>
</g>
</svg>
